<svg xmlns="http://www.w3.org/2000/svg" width="800" height="520" viewBox="0 0 800 520" role="img" aria-labelledby="title desc">
  <title id="title">Tyler Reese profile illustration</title>
  <desc id="desc">Simple illustration card with initials and abstract charts</desc>
  <rect width="800" height="520" rx="28" fill="#f3efe6"/>
  <rect x="38" y="38" width="724" height="444" rx="22" fill="#ffffff"/>
  <circle cx="170" cy="170" r="74" fill="#16324f"/>
  <text x="170" y="188" text-anchor="middle" font-family="Arial, Helvetica, sans-serif" font-size="54" font-weight="700" fill="#ffffff">TR</text>
  <rect x="290" y="108" width="230" height="24" rx="12" fill="#16324f"/>
  <rect x="290" y="150" width="170" height="18" rx="9" fill="#a44a3f"/>
  <rect x="290" y="186" width="260" height="16" rx="8" fill="#d7dde5"/>
  <rect x="290" y="214" width="210" height="16" rx="8" fill="#d7dde5"/>
  <rect x="88" y="300" width="624" height="132" rx="18" fill="#f8fafc" stroke="#d8e1ea"/>
  <polyline points="120,390 220,355 300,368 390,320 480,335 580,285 670,305" fill="none" stroke="#0f4c5c" stroke-width="10" stroke-linecap="round" stroke-linejoin="round"/>
  <circle cx="220" cy="355" r="7" fill="#a44a3f"/>
  <circle cx="390" cy="320" r="7" fill="#a44a3f"/>
  <circle cx="580" cy="285" r="7" fill="#a44a3f"/>
</svg>
